<svg version="1.1" id="Layer_1" xmlns="http://www.w3.org/2000/svg" xmlns:xlink="http://www.w3.org/1999/xlink" x="0px" y="0px"
	 width="100%" viewBox="0 0 225 225" enable-background="new 0 0 225 225" xml:space="preserve">
<path fill="#FDFDFD" opacity="1.000000" stroke="none" 
	d="
M124.000000,226.000000 
	C82.666672,226.000000 41.833340,226.000000 1.000005,226.000000 
	C1.000004,151.000000 1.000004,76.000015 1.000002,1.000015 
	C75.999992,1.000010 150.999985,1.000010 225.999969,1.000005 
	C225.999985,75.999985 225.999985,150.999969 226.000000,225.999969 
	C192.166672,226.000000 158.333328,226.000000 124.000000,226.000000 
M102.500076,43.190498 
	C78.349869,43.191021 54.199425,43.131371 30.049562,43.223713 
	C21.238886,43.257401 14.985076,49.271793 15.006831,57.260662 
	C15.028466,65.205353 21.374651,71.092125 30.064077,71.120209 
	C42.222328,71.159492 54.380806,71.130234 66.539185,71.130196 
	C110.176109,71.130051 153.813049,71.111496 197.449936,71.152046 
	C203.150818,71.157349 207.376877,68.796181 210.132965,63.891182 
	C212.817780,59.113033 212.512421,54.317738 209.637924,49.722343 
	C206.477722,44.670139 201.603088,43.167274 195.937057,43.173878 
	C165.124756,43.209793 134.312408,43.190678 102.500076,43.190498 
M165.499908,183.809525 
	C175.992447,183.809067 186.485992,183.899231 196.977188,183.780167 
	C205.774628,183.680359 212.035950,177.693863 211.993576,169.713150 
	C211.951340,161.759491 205.618408,155.901138 196.910080,155.880081 
	C181.754211,155.843414 166.598190,155.869751 151.442230,155.869797 
	C110.804283,155.869934 70.166306,155.849304 29.528397,155.888000 
	C21.441696,155.895691 15.386751,161.595367 15.020539,169.275711 
	C14.666081,176.709549 20.654835,183.127258 28.597624,183.764755 
	C30.087589,183.884354 31.593939,183.808212 33.092728,183.808273 
	C76.895111,183.809769 120.697495,183.809509 165.499908,183.809525 
M211.443253,110.353645 
	C209.017639,102.911362 204.900803,99.665375 197.199280,99.659286 
	C141.388840,99.615173 85.578323,99.610229 29.767895,99.662720 
	C21.276131,99.670700 15.155331,105.513870 15.015894,113.315689 
	C14.874635,121.219543 21.187923,127.332214 29.898659,127.339783 
	C85.709091,127.388260 141.519638,127.398842 197.330017,127.330475 
	C206.882095,127.318779 212.431595,120.846436 211.443253,110.353645 
z"/>
<path fill="#030303" opacity="1.000000" stroke="none" 
	d="
M103.000076,43.190498 
	C134.312408,43.190678 165.124756,43.209793 195.937057,43.173878 
	C201.603088,43.167274 206.477722,44.670139 209.637924,49.722343 
	C212.512421,54.317738 212.817780,59.113033 210.132965,63.891182 
	C207.376877,68.796181 203.150818,71.157349 197.449936,71.152046 
	C153.813049,71.111496 110.176109,71.130051 66.539185,71.130196 
	C54.380806,71.130234 42.222328,71.159492 30.064077,71.120209 
	C21.374651,71.092125 15.028466,65.205353 15.006831,57.260662 
	C14.985076,49.271793 21.238886,43.257401 30.049562,43.223713 
	C54.199425,43.131371 78.349869,43.191021 103.000076,43.190498 
z"/>
<path fill="#030303" opacity="1.000000" stroke="none" 
	d="
M164.999893,183.809525 
	C120.697495,183.809509 76.895111,183.809769 33.092728,183.808273 
	C31.593939,183.808212 30.087589,183.884354 28.597624,183.764755 
	C20.654835,183.127258 14.666081,176.709549 15.020539,169.275711 
	C15.386751,161.595367 21.441696,155.895691 29.528397,155.888000 
	C70.166306,155.849304 110.804283,155.869934 151.442230,155.869797 
	C166.598190,155.869751 181.754211,155.843414 196.910080,155.880081 
	C205.618408,155.901138 211.951340,161.759491 211.993576,169.713150 
	C212.035950,177.693863 205.774628,183.680359 196.977188,183.780167 
	C186.485992,183.899231 175.992447,183.809067 164.999893,183.809525 
z"/>
<path fill="#010101" opacity="1.000000" stroke="none" 
	d="
M211.581375,110.730881 
	C212.431595,120.846436 206.882095,127.318779 197.330017,127.330475 
	C141.519638,127.398842 85.709091,127.388260 29.898659,127.339783 
	C21.187923,127.332214 14.874635,121.219543 15.015894,113.315689 
	C15.155331,105.513870 21.276131,99.670700 29.767895,99.662720 
	C85.578323,99.610229 141.388840,99.615173 197.199280,99.659286 
	C204.900803,99.665375 209.017639,102.911362 211.581375,110.730881 
z"/>
</svg>