<svg version="1.1" id="Layer_1" xmlns="http://www.w3.org/2000/svg" xmlns:xlink="http://www.w3.org/1999/xlink" x="0px" y="0px"
	 width="100%" viewBox="0 0 416 416" enable-background="new 0 0 416 416" xml:space="preserve">
<path fill="#000000" opacity="1.000000" stroke="none" 
	d="
M292.312744,317.682404 
	C275.479858,300.820404 258.895935,284.207367 242.109344,267.391296 
	C214.168137,285.698090 184.292160,291.214630 152.294861,282.061127 
	C127.977676,275.104614 108.697227,260.788910 94.705132,239.760757 
	C66.270851,197.028015 73.016243,139.426270 110.191895,105.241486 
	C148.176025,70.313248 206.226013,67.872070 246.001938,98.962578 
	C285.511902,129.845215 301.847687,190.061523 267.889709,241.569260 
	C268.166199,243.568558 269.946930,244.469528 271.193665,245.718979 
	C292.263702,266.835724 313.394287,287.892151 334.449707,309.023438 
	C342.514618,317.117462 342.985657,327.854950 335.796204,335.264404 
	C328.820007,342.454071 318.066223,342.810486 310.699982,335.846741 
	C304.526062,330.010132 298.598389,323.913086 292.312744,317.682404 
M226.229538,129.269150 
	C212.280823,117.716423 196.314407,112.538170 178.168076,113.181618 
	C142.360565,114.451317 107.533806,146.447968 113.676956,191.574417 
	C118.915024,230.052170 155.245422,254.611603 190.402176,249.954788 
	C220.586533,245.956635 249.942322,220.067932 250.547211,182.655304 
	C250.888672,161.535583 242.623886,143.812195 226.229538,129.269150 
z"/>
<path fill="#000000" opacity="1.000000" stroke="none" 
	d="
M169.299530,130.887878 
	C173.448853,129.916031 177.225357,129.575699 181.079742,129.612686 
	C185.443176,129.654572 188.030579,131.652100 188.687225,135.900085 
	C189.303955,139.889893 186.776993,142.701920 182.112411,143.724228 
	C178.859894,144.437042 175.517975,144.125061 172.250763,145.043259 
	C156.242203,149.542084 145.599640,162.221237 144.164322,178.755524 
	C144.035263,180.242081 143.832672,181.735962 143.498810,183.188416 
	C142.561234,187.267288 139.734131,189.072769 135.789673,188.629608 
	C132.008957,188.204834 129.860580,185.691010 129.708893,181.872208 
	C129.233444,169.902298 133.205109,159.309433 140.272079,149.860168 
	C147.513611,140.177521 157.273499,134.129608 169.299530,130.887878 
z"/>
</svg>