<svg version="1.1" id="Layer_1" xmlns="http://www.w3.org/2000/svg" xmlns:xlink="http://www.w3.org/1999/xlink" x="0px" y="0px"
	 width="100%" viewBox="0 0 512 512" enable-background="new 0 0 512 512" xml:space="preserve">
<path fill="#000000" opacity="1.000000" stroke="none" 
	d="
M124.680847,81.072479 
	C131.265167,81.691261 137.403244,81.981155 142.930908,85.320686 
	C151.891220,90.734016 155.110764,99.400383 157.003448,108.977348 
	C160.386185,126.094055 163.879898,143.188812 167.287674,160.300598 
	C168.712311,167.454269 168.963531,167.702637 176.441803,167.701706 
	C256.428619,167.691757 336.415405,167.682724 416.402222,167.670639 
	C419.399200,167.670197 422.341156,167.771896 425.297485,168.582809 
	C440.489288,172.749802 446.514771,182.075317 443.473297,197.782379 
	C435.509369,238.910919 427.413239,280.014038 419.282745,321.110077 
	C417.186493,331.705658 408.399445,339.142578 396.988647,340.179840 
	C392.349457,340.601532 387.677124,340.845520 383.019592,340.849579 
	C325.537354,340.899841 268.055115,340.906616 210.572876,340.862457 
	C206.586960,340.859375 202.551865,340.671143 198.625137,340.038483 
	C187.421600,338.233337 178.930527,329.591034 176.709946,318.212646 
	C165.022110,258.323822 153.331299,198.435547 141.609589,138.553345 
	C139.789246,129.253769 137.902283,119.964806 135.861526,110.711647 
	C134.447418,104.299850 131.923904,102.322777 125.464653,102.297562 
	C111.300545,102.242256 97.136070,102.276237 82.971741,102.284370 
	C78.229607,102.287094 73.969948,101.161247 71.393356,96.779671 
	C67.774315,90.625389 71.166229,83.189003 78.277863,81.702446 
	C84.869347,80.324615 91.569336,81.121033 98.219994,81.044273 
	C106.883629,80.944275 115.549545,81.042313 124.680847,81.072479 
M237.945343,225.767563 
	C238.366837,227.711868 239.067276,229.643600 239.155579,231.602921 
	C239.385864,236.713181 241.911713,238.209747 246.883438,238.088120 
	C259.680328,237.774979 272.491364,237.863495 285.293365,238.039520 
	C289.315308,238.094818 290.926208,236.885498 290.864197,232.651489 
	C290.674286,219.683884 290.699921,206.709183 290.916870,193.741837 
	C290.987274,189.534348 289.403503,188.278732 285.360504,188.317215 
	C268.732819,188.475571 252.102768,188.374878 235.473694,188.412064 
	C234.040421,188.415268 232.445862,188.016602 230.768173,189.874359 
	C233.022308,201.285797 235.360275,213.121689 237.945343,225.767563 
M366.152405,188.367783 
	C349.856598,188.370209 333.560089,188.454712 317.265503,188.313858 
	C313.479034,188.281143 311.903900,189.379944 311.963715,193.402176 
	C312.158936,206.535843 312.148743,219.674927 312.009827,232.809723 
	C311.968414,236.723648 313.476715,238.060654 317.305237,238.022720 
	C330.772797,237.889282 344.244598,237.854156 357.710358,238.065063 
	C361.620575,238.126297 362.945862,236.287903 363.604401,232.936691 
	C366.163483,219.914413 368.796906,206.906540 371.455322,193.904083 
	C372.212036,190.202927 371.333588,187.978409 366.152405,188.367783 
M248.731842,279.949615 
	C251.135910,291.654327 253.652496,303.337708 255.873444,315.077087 
	C256.515228,318.469330 257.830414,319.882690 261.413818,319.784637 
	C269.561920,319.561676 277.722626,319.584564 285.873077,319.754364 
	C289.570129,319.831390 290.855103,318.384979 290.834778,314.763428 
	C290.739410,297.790253 290.756226,280.815796 290.866180,263.842621 
	C290.888733,260.358459 289.486359,259.175934 286.107941,259.207123 
	C273.961060,259.319183 261.811462,259.338684 249.665146,259.198761 
	C245.581436,259.151703 244.842072,260.995850 245.603027,264.491180 
	C246.660843,269.350159 247.546280,274.246613 248.731842,279.949615 
M312.099945,262.910767 
	C312.092712,280.038391 312.172607,297.166779 312.013855,314.292999 
	C311.976562,318.320953 313.205780,319.942627 317.419250,319.796783 
	C325.225647,319.526489 333.053497,319.528412 340.860901,319.777222 
	C344.813171,319.903168 346.387726,318.424896 347.123291,314.591522 
	C350.373169,297.655182 353.863739,280.764465 357.354828,263.875366 
	C358.052551,260.500122 356.749084,259.260132 353.518158,259.268311 
	C341.046753,259.299866 328.575195,259.280762 316.103699,259.272888 
	C314.138519,259.271637 312.383942,259.533264 312.099945,262.910767 
M227.534836,279.856323 
	C226.384491,274.325653 225.242020,268.793365 224.079666,263.265198 
	C223.654831,261.244690 223.136459,259.306976 220.452576,259.309509 
	C210.460754,259.318970 200.468796,259.283020 190.477112,259.320404 
	C188.172287,259.329010 187.230087,260.499908 187.682098,262.894440 
	C190.731659,279.048889 193.624344,295.233765 196.792969,311.364532 
	C197.955536,317.282928 201.260818,319.643555 207.455185,319.696838 
	C214.949203,319.761322 222.451157,319.514740 229.936264,319.780609 
	C234.674332,319.948853 235.171722,317.756409 234.367218,313.917664 
	C232.050079,302.861237 229.874023,291.775177 227.534836,279.856323 
M402.915802,295.671631 
	C405.009064,285.255951 406.951996,274.806671 409.268127,264.440796 
	C410.222046,260.171570 408.657684,259.083954 404.769623,259.175903 
	C398.117767,259.333191 391.448181,259.490326 384.809113,259.169586 
	C380.439758,258.958527 379.019257,261.055695 378.338379,264.836151 
	C376.955933,272.511993 375.320129,280.142090 373.806854,287.794617 
	C371.755585,298.167816 369.721283,308.544373 367.528748,319.686768 
	C375.677399,319.686768 383.111542,319.691895 390.545654,319.684998 
	C395.657959,319.680267 398.583466,316.888885 399.658569,312.133606 
	C400.828796,306.957855 401.743439,301.724335 402.915802,295.671631 
M195.522888,237.994904 
	C201.847397,237.985886 208.171906,237.965103 214.496399,237.973328 
	C217.222137,237.976883 219.012787,237.446106 218.278122,233.939453 
	C215.418304,220.289337 212.638031,206.620895 210.030289,192.920807 
	C209.359055,189.394333 207.575836,188.292862 204.210709,188.343002 
	C195.558044,188.471954 186.902084,188.416489 178.247696,188.378265 
	C174.402954,188.361282 172.915039,189.542572 173.892868,193.843216 
	C176.356415,204.678436 178.105011,215.675552 180.536301,226.518967 
	C183.451828,239.522034 180.152206,237.832489 195.522888,237.994904 
M390.433624,204.837814 
	C388.573273,214.278015 386.864105,223.751816 384.777771,233.141800 
	C383.949493,236.869629 385.163483,238.013977 388.661896,237.980331 
	C395.313568,237.916336 401.978973,237.753906 408.614746,238.096176 
	C413.044342,238.324631 414.839081,236.456955 415.595856,232.349335 
	C417.970154,219.462143 420.438049,206.589005 423.138824,193.767105 
	C423.936493,189.980225 422.938660,188.370804 419.135925,188.380127 
	C411.984589,188.397644 404.832367,188.449646 397.682220,188.356827 
	C394.831146,188.319824 393.494171,189.477982 393.044647,192.316238 
	C392.422852,196.242401 391.436981,200.110916 390.433624,204.837814 
z"/>
<path fill="#000000" opacity="1.000000" stroke="none" 
	d="
M285.000122,351.639343 
	C323.159576,351.642426 360.819061,351.645050 398.478516,351.651184 
	C400.144592,351.651459 401.818604,351.585419 403.475281,351.719299 
	C408.604797,352.133881 412.620850,355.949402 413.216705,360.871765 
	C413.801270,365.700806 410.646240,370.292450 405.535034,371.707794 
	C403.802643,372.187531 401.922882,372.300903 400.110382,372.301727 
	C334.123016,372.330902 268.135651,372.327332 202.148270,372.324066 
	C201.149170,372.324036 200.141708,372.343475 199.152344,372.230072 
	C193.656158,371.599884 189.661514,367.141296 189.715042,361.745239 
	C189.768555,356.351532 193.879883,351.958313 199.518723,351.732697 
	C205.175629,351.506317 210.847702,351.650024 216.513138,351.648407 
	C239.175461,351.641907 261.837769,351.641968 285.000122,351.639343 
z"/>
<path fill="#000000" opacity="1.000000" stroke="none" 
	d="
M215.433029,414.206299 
	C210.248123,397.903870 222.055099,382.253845 236.933853,380.315308 
	C250.146027,378.593872 264.312866,388.425049 266.244568,401.570435 
	C268.484833,416.815643 258.312469,430.850555 243.960617,432.315796 
	C230.553970,433.684570 220.106735,427.164337 215.433029,414.206299 
M239.695602,411.564819 
	C243.805542,411.457886 246.035828,409.239349 245.401779,405.264801 
	C244.877686,401.979431 242.171616,400.831390 238.965973,401.459137 
	C237.022705,401.839630 235.744446,403.135864 235.415314,405.144867 
	C234.919449,408.171692 236.162552,410.271179 239.695602,411.564819 
z"/>
<path fill="#000000" opacity="1.000000" stroke="none" 
	d="
M378.462585,385.417053 
	C388.902100,394.474640 391.725128,407.473755 385.882355,418.455872 
	C379.958649,429.590088 367.599670,434.889374 355.383911,431.532898 
	C343.721405,428.328491 336.168060,417.853607 336.503174,405.349335 
	C336.821777,393.461456 345.314911,383.259247 356.846466,380.735535 
	C364.657898,379.026031 371.653778,380.884003 378.462585,385.417053 
M363.282990,401.320312 
	C358.199890,402.085999 355.925873,405.300354 358.009186,408.870148 
	C359.201630,410.913391 361.027496,411.994934 363.449249,411.534424 
	C365.585815,411.128204 367.114563,409.821625 367.535858,407.663116 
	C368.118469,404.678009 367.124603,402.415405 363.282990,401.320312 
z"/>
</svg>